<svg width="400" height="400" viewBox="0 0 400 400" fill="none" xmlns="http://www.w3.org/2000/svg">
  <!-- Smartphone -->
  <rect x="140" y="50" width="120" height="240" rx="20" fill="#2D3748" />
  <rect x="150" y="70" width="100" height="180" rx="2" fill="#F7FAFC" />
  
  <!-- Home button -->
  <circle cx="200" cy="270" r="10" fill="#A0AEC0" />
  
  <!-- Speaker -->
  <rect x="175" y="60" width="50" height="5" rx="2.5" fill="#A0AEC0" />
  
  <!-- Avatar 1 -->
  <circle cx="170" cy="100" r="15" fill="#6366F1" />
  <path d="M170 95C172.761 95 175 97.2386 175 100C175 102.761 172.761 105 170 105C167.239 105 165 102.761 165 100C165 97.2386 167.239 95 170 95Z" fill="#F7FAFC" />
  <path d="M177 110C177 106.134 173.866 103 170 103C166.134 103 163 106.134 163 110" stroke="#F7FAFC" stroke-width="2" stroke-linecap="round" />
  
  <!-- Message bubble 1 -->
  <rect x="155" y="120" width="70" height="30" rx="10" fill="#E2E8F0" />
  
  <!-- Avatar 2 -->
  <circle cx="230" cy="170" r="15" fill="#ED64A6" />
  <path d="M230 165C232.761 165 235 167.239 235 170C235 172.761 232.761 175 230 175C227.239 175 225 172.761 225 170C225 167.239 227.239 165 230 165Z" fill="#F7FAFC" />
  <path d="M237 180C237 176.134 233.866 173 230 173C226.134 173 223 176.134 223 180" stroke="#F7FAFC" stroke-width="2" stroke-linecap="round" />
  
  <!-- Message bubble 2 -->
  <rect x="175" y="190" width="70" height="30" rx="10" fill="#6366F1" />
  
  <!-- Floating message bubbles -->
  <rect x="60" y="120" width="60" height="25" rx="10" fill="#E2E8F0" />
  <rect x="280" y="190" width="60" height="25" rx="10" fill="#6366F1" />
  
  <!-- Decorative elements -->
  <circle cx="80" y="80" r="5" fill="#6366F1" opacity="0.5" />
  <circle cx="320" y="120" r="5" fill="#ED64A6" opacity="0.5" />
  <circle cx="100" y="220" r="5" fill="#6366F1" opacity="0.5" />
  <circle cx="300" y="250" r="5" fill="#ED64A6" opacity="0.5" />
</svg> 